<svg width="20" height="20" viewBox="0 0 20 20" fill="none" xmlns="http://www.w3.org/2000/svg">
<g clip-path="url(#clip0_3269_2436)">
<path d="M9.99888 20C4.47583 19.9993 -0.00274863 15.5154 1.26567e-06 9.98963C0.00275116 4.47458 4.48883 -0.00349782 10.0069 2.05011e-06C15.5292 0.00350192 20.0078 4.49233 20 10.0164C19.9923 15.5269 15.5107 20.0008 9.99888 20ZM8.1177 12.6125C7.35448 12.1963 6.77275 11.6221 6.38176 10.8641C5.98803 10.1006 5.85378 9.29015 5.97028 8.43993C6.08652 7.59322 6.43676 6.85299 7.02049 6.23052C8.64618 4.49633 11.3336 4.48933 12.9748 6.22402C13.7537 7.04749 14.123 8.0457 14.066 9.17691C13.9902 10.6726 13.2595 11.7863 11.9768 12.5743C13.0055 12.8648 13.9122 13.3495 14.7077 14.0387C15.5062 14.7307 16.1156 15.5644 16.5496 16.5311C19.0173 14.1242 20.0817 10.1241 18.5468 6.43476C17.0224 2.7709 13.2148 0.31699 8.93342 0.801972C4.94757 1.2532 1.61444 4.28409 0.886718 8.36069C0.539731 10.3039 0.789972 12.1775 1.63519 13.9647C2.12342 14.9972 2.7869 15.9039 3.62162 16.6981C4.51708 14.6637 6.00103 13.304 8.11745 12.6125H8.1177ZM10.7151 13.1145C10.7151 12.8513 10.7204 12.5933 10.7124 12.3355C10.7091 12.2323 10.7433 12.1948 10.8416 12.1665C12.4245 11.7128 13.422 10.2071 13.2193 8.58468C12.9885 6.7375 11.4018 5.4878 9.55264 5.69679C8.01745 5.87028 6.7555 7.15848 6.623 8.68793C6.47826 10.3604 7.52497 11.8316 9.15516 12.2403C9.24041 12.2618 9.2719 12.2908 9.26915 12.3798C9.2629 12.588 9.26415 12.7965 9.26865 13.0045C9.2704 13.086 9.24666 13.115 9.16091 13.1308C6.79175 13.569 5.14931 14.9117 4.20284 17.1201C4.16484 17.2086 4.19034 17.2524 4.25934 17.3051C6.19852 18.7875 8.38519 19.4355 10.8151 19.2153C12.6388 19.05 14.265 18.3723 15.6979 17.2319C15.9019 17.0696 15.9057 17.0684 15.7934 16.8344C14.9047 14.9797 13.438 13.8242 11.4743 13.2753C11.2308 13.2073 10.9788 13.1695 10.7146 13.1145H10.7151Z" fill="#009DFA"/>
</g>
<defs>
<clipPath id="clip0_3269_2436">
<rect width="20" height="20" fill="white"/>
</clipPath>
</defs>
</svg>
