<svg width="20" height="20" viewBox="0 0 20 20" fill="none" xmlns="http://www.w3.org/2000/svg">
<path d="M4.01566 1.29066C4.02924 0.976662 4.04306 0.666303 4.05566 0.355701C4.06561 0.11687 4.18199 0.00266715 4.42058 0.00242468C5.71779 0.00169728 7.01475 0.000969873 8.31195 0.000484937C9.17126 0.000242468 10.0303 0 10.8896 0C12.2467 0 13.6041 0.000484937 14.9612 0.000969873C15.2073 0.000969873 15.3232 0.114203 15.3336 0.360793C15.3464 0.670667 15.3603 0.980784 15.3743 1.30375C15.4483 1.30375 15.5159 1.30375 15.5838 1.30375C16.6381 1.30375 17.6921 1.30302 18.7463 1.30375C18.8186 1.30375 18.8928 1.30448 18.9624 1.32048C19.0848 1.34861 19.1537 1.43881 19.1789 1.55689C19.3692 2.45087 19.4286 3.35431 19.3651 4.26575C19.3244 4.85131 19.2245 5.42644 19.0438 5.98557C18.7015 7.04564 18.1125 7.93114 17.1902 8.5761C16.5137 9.04892 15.7572 9.33164 14.9481 9.46184C14.4993 9.5341 14.0417 9.55107 13.5888 9.60029C13.5396 9.60563 13.4816 9.64903 13.4508 9.69122C13.0541 10.2353 12.5859 10.704 12.0108 11.0585C11.843 11.162 11.6641 11.2483 11.4863 11.3344C11.4223 11.3655 11.3991 11.4001 11.3993 11.4712C11.402 12.1862 11.4 12.9013 11.4039 13.6163C11.4039 13.6578 11.4342 13.7198 11.4684 13.7373C12.3183 14.1735 12.7894 14.8703 12.9094 15.8123C12.9108 15.824 12.9162 15.8349 12.9269 15.8696C13.0728 15.8696 13.2253 15.8705 13.3776 15.8696C13.6038 15.8679 13.8298 15.8615 14.056 15.8628C14.2687 15.864 14.3875 15.9896 14.388 16.2063C14.3887 16.6265 14.3882 17.0467 14.3882 17.4672C14.3882 17.5108 14.3882 17.5545 14.3882 17.6151C14.4411 17.6151 14.4837 17.6151 14.5264 17.6151C15.3508 17.6151 16.1752 17.6151 16.9993 17.6151C17.2748 17.6151 17.3885 17.7278 17.3888 18.0055C17.3895 18.5469 17.3895 19.0883 17.3888 19.63C17.3883 19.8846 17.2733 20.0002 17.0192 20C14.9262 19.9993 12.833 19.9968 10.74 19.9968C7.96838 19.9968 5.19672 19.9993 2.42507 20C2.35669 20 2.28565 20.0024 2.22042 19.9857C2.08779 19.952 2.00172 19.8342 2.00123 19.6853C1.99881 19.1034 1.99784 18.5214 2.00123 17.9397C2.00244 17.7358 2.13944 17.6158 2.35887 17.6156C3.19127 17.6148 4.02366 17.6151 4.85605 17.6151C4.8997 17.6151 4.94334 17.6151 5.00081 17.6151C5.00081 17.561 5.00081 17.5179 5.00081 17.4749C5.00081 17.0627 5.00081 16.6505 5.00081 16.2383C5.00081 15.9748 5.11089 15.8642 5.37736 15.863C5.69669 15.8613 6.01578 15.8623 6.33511 15.8623C6.37851 15.8623 6.42191 15.8623 6.44713 15.8623C6.51793 15.6007 6.56521 15.3497 6.65371 15.114C6.88527 14.4977 7.31153 14.0493 7.8983 13.7545C7.96498 13.721 7.99093 13.6849 7.99044 13.6085C7.98705 12.8979 7.98777 12.1874 7.9885 11.4768C7.9885 11.413 7.98389 11.3698 7.91018 11.3371C7.10689 10.9816 6.47113 10.4218 5.96147 9.71401C5.89964 9.62793 5.83659 9.59568 5.73476 9.59374C4.90188 9.57677 4.08743 9.45263 3.30523 9.15415C1.88291 8.61126 0.929763 7.61035 0.41476 6.18391C0.0850034 5.27102 -0.0163484 4.32515 0.00207924 3.3611C0.0134752 2.77044 0.084276 2.18706 0.197266 1.60805C0.239941 1.38934 0.358023 1.30327 0.576972 1.30375C1.71148 1.30545 2.84599 1.30302 3.98074 1.30181C3.98826 1.30181 3.99578 1.29721 4.0159 1.2909L4.01566 1.29066ZM14.7357 0.631872C14.6467 0.631872 14.5946 0.631872 14.5424 0.631872C12.64 0.631872 10.7374 0.631388 8.83496 0.631145C7.49338 0.631145 6.15205 0.63163 4.81047 0.62775C4.70184 0.627508 4.66184 0.655392 4.66426 0.76814C4.6822 1.59568 4.67323 2.42444 4.71494 3.25053C4.76998 4.33533 4.92176 5.40923 5.19939 6.46251C5.46004 7.45129 5.81186 8.40056 6.40009 9.24774C7.01669 10.1359 7.82532 10.7518 8.89121 11.0054C9.50296 11.1509 10.1106 11.1317 10.7095 10.9547C11.7179 10.6567 12.4744 10.0219 13.0505 9.15779C13.5342 8.43256 13.8543 7.63436 14.0963 6.80099C14.3184 6.03625 14.4631 5.25768 14.5628 4.46821C14.686 3.49251 14.7359 2.51367 14.7354 1.53143C14.7354 1.23756 14.7354 0.943444 14.7354 0.631872H14.7357ZM13.9472 8.95096C13.9438 8.95048 13.9554 8.95436 13.967 8.95339C14.79 8.89277 15.5875 8.73225 16.3301 8.35449C16.9043 8.06256 17.3871 7.66248 17.7675 7.1419C18.2927 6.42323 18.555 5.6032 18.6763 4.73371C18.8002 3.84385 18.774 2.95448 18.6336 2.06728C18.6169 1.96133 18.5836 1.92981 18.4762 1.93029C17.4874 1.93465 16.4984 1.93296 15.5096 1.93344C15.4672 1.93344 15.4248 1.93732 15.3792 1.9395C15.3763 1.98897 15.3726 2.02485 15.3719 2.06074C15.3462 3.32545 15.2417 4.58217 14.984 5.82312C14.8593 6.42323 14.725 7.02091 14.5058 7.59435C14.332 8.04874 14.1363 8.49464 13.9474 8.95096H13.9472ZM5.46319 8.9529C5.33396 8.67333 5.2023 8.4105 5.08906 8.14015C4.7564 7.34582 4.53115 6.51876 4.37039 5.67424C4.16017 4.57004 4.04912 3.45469 4.0273 2.33085C4.02487 2.20282 4.02705 2.07456 4.02705 1.94896C3.98632 1.93999 3.9708 1.93368 3.95553 1.93368C2.92188 1.9332 1.88824 1.93247 0.854598 1.93684C0.824047 1.93684 0.770219 1.98606 0.766824 2.01685C0.720513 2.43753 0.660866 2.85846 0.644135 3.28084C0.60534 4.26065 0.712511 5.22156 1.07646 6.14294C1.54709 7.33467 2.38869 8.14354 3.58649 8.58556C4.18878 8.8079 4.81435 8.91605 5.46319 8.95314V8.9529ZM2.6365 18.2506V19.3662H16.7515V18.2506H2.63626H2.6365ZM13.7534 16.4988H5.6402V17.61H13.7532V16.4988H13.7534ZM7.1081 15.8545H12.2705C12.2722 15.8308 12.2763 15.8145 12.2739 15.7992C12.1653 15.1397 11.8314 14.6383 11.2281 14.3347C11.1246 14.2826 10.9992 14.2511 10.8836 14.2499C10.1164 14.2423 9.34899 14.252 8.58206 14.2419C8.36821 14.239 8.18733 14.3015 8.01445 14.4109C7.94631 14.454 7.87866 14.4986 7.81586 14.5493C7.40246 14.8825 7.18108 15.3199 7.10834 15.8545H7.1081ZM8.62862 11.5863V13.6042H10.7648V11.5885C10.0531 11.7786 9.34754 11.7767 8.62862 11.5863V11.5863Z" fill="#009DFA"/>
<path d="M8.39739 5.68881C7.97113 5.37918 7.54997 5.07343 7.12928 4.76743C6.97435 4.65469 6.92391 4.52642 6.97338 4.37318C7.01848 4.23352 7.13826 4.16199 7.33005 4.16199C7.80698 4.16175 8.28368 4.15908 8.76037 4.16417C8.8593 4.16514 8.90585 4.14041 8.93689 4.0393C9.07946 3.5774 9.2327 3.11865 9.3823 2.65893C9.4388 2.48508 9.54742 2.39876 9.70454 2.40143C9.84202 2.40361 9.95404 2.49744 10.0054 2.65578C10.1565 3.11938 10.31 3.58225 10.4552 4.04754C10.4831 4.13653 10.5195 4.16563 10.6128 4.16466C11.0936 4.15957 11.5745 4.16223 12.0553 4.16272C12.2507 4.16272 12.3741 4.23861 12.4175 4.38288C12.4636 4.53588 12.402 4.66632 12.2405 4.78247C11.8504 5.06276 11.4641 5.34814 11.0728 5.62674C11.0017 5.67717 10.9998 5.72227 11.0248 5.79817C11.1783 6.26104 11.3274 6.72537 11.476 7.18993C11.5337 7.37033 11.4974 7.50272 11.3725 7.58904C11.2428 7.67851 11.1198 7.66881 10.961 7.55339C10.5886 7.28304 10.2169 7.01172 9.84445 6.74113C9.79571 6.70573 9.74528 6.67251 9.69096 6.63517C9.27174 6.93971 8.85372 7.24303 8.43619 7.54733C8.27252 7.66663 8.14644 7.68021 8.01357 7.58928C7.89282 7.50684 7.85645 7.36184 7.91585 7.17708C8.0737 6.68584 8.23349 6.19533 8.39764 5.68906L8.39739 5.68881ZM10.5917 6.50326C10.4986 6.21739 10.4176 5.96935 10.3369 5.7213C10.2729 5.5249 10.3063 5.41191 10.47 5.28801C10.5794 5.20533 10.6924 5.1275 10.8029 5.04676C10.9074 4.97038 11.011 4.89279 11.1147 4.81568C10.8461 4.79192 10.5888 4.79241 10.3313 4.79192C10.0964 4.79144 10.0229 4.73931 9.94968 4.52036C9.86699 4.27304 9.78553 4.02524 9.69363 3.74785C9.6027 4.02184 9.52123 4.26577 9.44122 4.50993C9.36702 4.73591 9.29259 4.79168 9.05497 4.79241C8.79819 4.79289 8.54166 4.79241 8.25143 4.79241C8.30574 4.83629 8.33435 4.86151 8.36515 4.88406C8.54409 5.01499 8.72594 5.14229 8.90246 5.27637C9.08649 5.41604 9.11486 5.51909 9.04406 5.73803C8.96501 5.98196 8.88645 6.22612 8.79698 6.50326C9.02126 6.34008 9.21863 6.19654 9.41576 6.05276C9.64441 5.8857 9.74067 5.8857 9.96738 6.05106C10.1657 6.19581 10.365 6.33936 10.5915 6.50351L10.5917 6.50326Z" fill="#009DFA"/>
</svg>
