<svg width="29" height="20" viewBox="0 0 29 20" fill="none" xmlns="http://www.w3.org/2000/svg">
<g clip-path="url(#clip0_3269_2430)">
<path d="M0 5.71418C0.158971 5.60459 0.303698 5.46019 0.478624 5.38998C4.88367 3.61892 9.29328 1.85755 13.6983 0.0853399C13.9838 -0.0293829 14.2288 -0.0288121 14.512 0.0853399C18.9091 1.85355 23.3095 3.61321 27.7095 5.37571C27.7795 5.40368 27.8707 5.41681 27.914 5.46875C28.0223 5.59831 28.183 5.74671 28.1824 5.88654C28.1818 6.02695 28.0422 6.229 27.9095 6.29521C27.5043 6.49669 27.073 6.64566 26.6519 6.81631C26.5653 6.8517 26.481 6.89222 26.3853 6.93446C26.3853 8.2278 26.3819 9.51715 26.3944 10.8065C26.395 10.8778 26.5118 10.9783 26.5961 11.0137C27.3471 11.3293 27.8086 12.0645 27.7448 12.8658C27.681 13.6603 27.0964 14.3201 26.3032 14.4913C25.4155 14.6831 24.5221 14.182 24.2184 13.3218C23.9112 12.4497 24.3004 11.4863 25.1249 11.0845C25.2349 11.0308 25.35 10.9874 25.4645 10.9389V7.29518C24.7255 7.59026 24.0064 7.87507 23.2913 8.16787C23.248 8.18557 23.2167 8.26547 23.2053 8.32141C23.1905 8.39446 23.2013 8.47266 23.2013 8.548C23.2013 11.5354 23.2013 14.5221 23.2013 17.5095C23.2013 17.9804 23.1528 18.0517 22.7181 18.2287C20.3694 19.1853 17.9415 19.8045 15.4031 19.9541C15.3296 19.9586 15.2567 19.9843 15.1838 19.9997H13.0231C12.7986 19.9758 12.5747 19.9489 12.3502 19.929C9.97702 19.7149 7.69502 19.1339 5.49335 18.2287C5.0529 18.0477 5.00561 17.9844 5.00561 17.5146C5.00561 14.5005 5.00333 11.4868 5.01073 8.47266C5.01073 8.25748 4.94578 8.16502 4.74521 8.08682C3.3196 7.52862 1.89797 6.95843 0.480333 6.37968C0.305977 6.30834 0.160681 6.16565 0.00170937 6.05606C0.00170937 5.94248 0.00170937 5.82833 0.00170937 5.71475L0 5.71418ZM5.9355 8.57026C5.92354 8.63019 5.91613 8.64845 5.91613 8.66672C5.91499 11.5217 5.91613 14.3766 5.91043 17.231C5.91043 17.3828 5.97026 17.4422 6.09903 17.4935C8.53261 18.4592 11.0505 19.026 13.6727 19.0837C16.5718 19.1476 19.3546 18.5745 22.048 17.5198C22.2355 17.4461 22.297 17.3548 22.2965 17.1528C22.289 14.3834 22.2919 11.6136 22.2908 8.84422C22.2908 8.76318 22.2822 8.6827 22.2765 8.57939C22.1569 8.62277 22.0594 8.65473 21.9643 8.69297C19.4521 9.69808 16.9393 10.7015 14.4288 11.7117C14.202 11.803 14.0049 11.8019 13.7764 11.7094C12.1286 11.0411 10.4756 10.3836 8.82434 9.72319C7.8688 9.34078 6.91212 8.95952 5.9355 8.56912V8.57026ZM1.70595 5.88255C1.84498 5.94419 1.91222 5.97672 1.98173 6.00469C5.95146 7.59426 9.92061 9.18497 13.8938 10.7665C14.0174 10.8156 14.1952 10.8156 14.3194 10.7665C18.3005 9.18097 22.2777 7.58684 26.2554 5.99385C26.3203 5.96759 26.3818 5.93392 26.4878 5.88312C26.3573 5.82604 26.2747 5.78723 26.1904 5.75299C22.2395 4.16913 18.2891 2.58413 14.3342 1.00997C14.1963 0.955178 13.9969 0.96374 13.8567 1.01967C9.97987 2.5613 6.10701 4.11262 2.23358 5.66338C2.07859 5.72559 1.92532 5.7918 1.70709 5.88312L1.70595 5.88255ZM26.8388 12.7043C26.8348 12.2123 26.4189 11.8013 25.9272 11.8048C25.4297 11.8076 25.024 12.214 25.0212 12.71C25.0189 13.2174 25.4388 13.6323 25.9465 13.6232C26.4417 13.6141 26.8422 13.202 26.8383 12.7048L26.8388 12.7043Z" fill="#009DFA"/>
</g>
<defs>
<clipPath id="clip0_3269_2430">
<rect width="28.1818" height="20" fill="white"/>
</clipPath>
</defs>
</svg>
