<svg width="23" height="20" viewBox="0 0 23 20" fill="none" xmlns="http://www.w3.org/2000/svg">
<g clip-path="url(#clip0_3269_2498)">
<path d="M13.3233 18.9329C13.5112 19.1349 13.6705 19.3338 13.8572 19.501C14.3918 19.9782 15.0124 20.1228 15.6952 19.8952C16.3872 19.6646 16.8418 19.1843 16.9388 18.4588C17.0096 17.9297 16.9785 17.3866 16.9901 16.8496C16.9944 16.6403 16.9907 16.4304 16.9907 16.2162C17.1237 16.2089 17.2147 16.204 17.3056 16.1985C19.6555 16.0643 21.5265 14.5527 22.0885 12.3321C22.1452 12.1076 22.1892 11.88 22.2392 11.6536V4.52924C22.2215 4.48347 22.1934 4.43954 22.1873 4.39194C22.0403 3.32283 21.5881 2.39835 20.8552 1.61299C20.1285 0.83496 19.2388 0.335799 18.1965 0.111238C17.9579 0.0599793 17.77 0.128934 17.6577 0.344342C17.5515 0.548766 17.5881 0.750139 17.7712 0.88927C17.8713 0.965548 18.0061 1.0046 18.1312 1.03694C20.0333 1.52817 21.3105 3.13488 21.3233 5.09308C21.3361 7.11231 21.3526 9.13214 21.3178 11.1507C21.2897 12.799 20.5037 14.0255 19.0575 14.8182C18.3332 15.2154 17.5423 15.307 16.7301 15.2929C16.2017 15.2838 16.0803 15.4107 16.0796 15.9282C16.0784 16.6183 16.0815 17.3085 16.0784 17.998C16.076 18.5222 15.8685 18.8566 15.4584 19.0153C15.0459 19.1745 14.6658 19.0623 14.3222 18.6705C13.4319 17.6563 12.5379 16.6452 11.6598 15.62C11.456 15.382 11.24 15.2838 10.9275 15.2856C9.00901 15.2966 7.09108 15.3003 5.17255 15.2887C2.73471 15.274 0.924798 13.4531 0.919916 11.0244C0.916255 9.06623 0.915035 7.10742 0.923578 5.14922C0.924798 4.82703 0.951038 4.49751 1.02243 4.18446C1.46545 2.22565 3.11915 0.925883 5.16767 0.922832C8.77102 0.91795 12.3738 0.921612 15.9771 0.919781C16.1077 0.919781 16.2645 0.939918 16.3628 0.877676C16.4946 0.794075 16.6429 0.650673 16.6691 0.511543C16.6923 0.386448 16.5922 0.197279 16.4873 0.102085C16.3988 0.0215354 16.2249 0.0117718 16.0882 0.0111616C14.6877 0.00505941 13.2867 0.00689007 11.8862 0.00750029C9.55149 0.00872073 7.21679 -0.018129 4.8833 0.0203149C2.46988 0.0611998 0.367056 1.94495 0.0765906 4.33824C-0.0344696 5.2493 0.0228912 6.18111 0.00519476 7.10315C0.00214365 7.25144 0.00519476 7.39972 0.00519476 7.57119V8.49995C0.00519476 9.19316 -0.00639944 9.87051 0.00885609 10.5472C0.0204503 11.0629 0.0064152 11.5901 0.107102 12.0911C0.596499 14.5356 2.6444 16.1863 5.17682 16.2022C6.82076 16.2125 8.46652 16.2345 10.1092 16.1887C10.7262 16.1717 11.1826 16.3053 11.5109 16.838C11.6159 17.0083 11.7574 17.1657 11.91 17.2957" fill="#1B3C74"/>
<path d="M11.5782 9.42745C11.5782 9.73866 11.583 10.0316 11.5769 10.3245C11.5702 10.6454 11.3756 10.8554 11.1065 10.8468C10.8459 10.8383 10.6708 10.6387 10.6665 10.3287C10.661 9.93332 10.6634 9.53729 10.6653 9.14186C10.6671 8.70067 10.7885 8.57558 11.2401 8.54201C12.2213 8.46879 12.967 7.74262 13.0824 6.74857C13.1867 5.84972 12.574 4.95635 11.6697 4.68786C10.4529 4.32661 9.24712 5.19068 9.14033 6.48069C9.12629 6.64911 9.0311 6.86513 8.90051 6.9591C8.59418 7.18 8.23232 6.90418 8.23537 6.47947C8.24513 5.15895 9.32523 3.92752 10.6427 3.73469C12.2012 3.50647 13.6328 4.48282 13.9422 5.98458C14.2564 7.50952 13.3313 8.97222 11.7948 9.37863C11.7362 9.39388 11.6764 9.40548 11.5776 9.42684L11.5782 9.42745Z" fill="#1B3C74"/>
<path d="M10.667 12.1924C10.667 11.9312 10.8684 11.7213 11.1192 11.7207C11.3675 11.7207 11.5756 11.9343 11.5768 12.19C11.5781 12.4463 11.3712 12.6598 11.121 12.6604C10.8684 12.6611 10.667 12.4536 10.667 12.1918V12.1924Z" fill="#1B3C74"/>
</g>
<defs>
<clipPath id="clip0_3269_2498">
<rect width="22.2389" height="20" fill="white"/>
</clipPath>
</defs>
</svg>
