<svg width="20" height="20" viewBox="0 0 20 20" fill="none" xmlns="http://www.w3.org/2000/svg">
<g clip-path="url(#clip0_3269_2433)">
<path d="M0.317373 17.9511C0.104028 17.9517 9.00478e-05 18.0543 9.00478e-05 18.2641C-0.00011256 18.6238 9.00478e-05 18.9834 9.00478e-05 19.3432V19.6621C9.00478e-05 19.7869 0.0252134 19.8724 0.0768783 19.9236C0.128746 19.9751 0.215057 20 0.341079 20H0.341281L2.59873 19.9992C4.18069 19.9986 5.76265 19.9976 7.34482 19.998C8.41965 19.998 9.49428 19.9984 10.5689 19.999C11.4274 19.9994 12.2858 19.9998 13.1441 19.9998C14.8634 20 16.5825 19.9998 18.3018 19.9998H19.6773C19.9032 19.9998 19.9997 19.9021 19.9999 19.6734C19.9999 19.3977 19.9999 19.1221 19.9999 18.8464V18.2556C19.9999 18.064 19.8919 17.953 19.7037 17.9511C19.6311 17.9503 19.5586 17.9505 19.4806 17.9507C19.4429 17.9507 19.404 17.9507 19.3633 17.9507H19.2519V11.7932C19.2519 10.2028 19.2519 8.61241 19.2517 7.02202C19.2517 6.43084 18.8067 5.98331 18.2169 5.98088C17.5903 5.97824 16.9529 5.97946 16.3363 5.98047C16.062 5.98088 15.7875 5.98148 15.5131 5.98169C15.3713 5.98169 15.2293 5.98169 15.0844 5.98169H14.7675V4.35989C14.7675 4.03392 14.7675 3.70814 14.7675 3.38216C14.7677 2.61695 14.768 1.82581 14.7669 1.04783C14.7665 0.450576 14.3159 0 13.7189 0H13.6044C11.1609 0 8.71748 0 6.27404 0.000405195C6.21994 0.000405195 6.15754 0.00121558 6.10141 0.0109403C5.58193 0.101096 5.23283 0.516421 5.23263 1.04479C5.23223 2.06386 5.23284 3.09994 5.23365 4.10199C5.23405 4.52116 5.23425 4.94034 5.23446 5.35951C5.23446 5.47296 5.23446 5.58622 5.23446 5.7017V5.97986H4.29112C3.48656 5.97986 2.65486 5.97966 1.83673 5.98128C1.72428 5.98148 1.63027 5.9904 1.54923 6.00823C1.07006 6.11459 0.748117 6.52465 0.748117 7.02891C0.748117 9.75486 0.748117 12.4808 0.748117 15.2068V17.9509H0.528491C0.454741 17.9509 0.386057 17.9509 0.317576 17.9509L0.317373 17.9511ZM14.7736 6.56172L14.8693 6.54795C14.8751 6.54713 14.8808 6.54612 14.8867 6.54491C14.9045 6.54166 14.9268 6.53761 14.9519 6.53761H15.4041C16.3183 6.537 17.2635 6.5364 18.193 6.53782C18.4757 6.53822 18.6785 6.71529 18.6979 6.97826C18.7004 7.01189 18.7002 7.0439 18.7002 7.0751V7.098C18.7002 7.66851 18.7002 8.23902 18.6998 8.80954C18.6998 8.82413 18.6983 8.83648 18.6967 8.85067C18.6959 8.85735 18.6951 8.86525 18.6941 8.87538L18.6846 8.97628H18.4554C18.2633 8.97628 18.0711 8.97587 17.8788 8.97567C17.3808 8.97506 16.8655 8.97445 16.3592 8.97567C16.2192 8.97587 16.1041 9.07129 16.0855 9.20237C16.0646 9.34885 16.14 9.47426 16.2729 9.51417C16.3108 9.52552 16.3586 9.52653 16.4008 9.52673C16.9444 9.52754 17.4973 9.52754 18.032 9.52754H18.6929V11.9672H17.8721C17.3877 11.967 16.8868 11.9668 16.3943 11.9676C16.2018 11.968 16.0823 12.0742 16.0827 12.245C16.0829 12.4077 16.2034 12.5217 16.3758 12.5219C16.8629 12.5227 17.35 12.5225 17.8371 12.5225H18.6917V14.9569H17.8786C17.3846 14.9567 16.8909 14.9565 16.3969 14.9572C16.2067 14.9574 16.0833 15.0664 16.0827 15.2347C16.0823 15.3127 16.108 15.3798 16.1566 15.4286C16.2117 15.4839 16.2958 15.5145 16.3933 15.5147C16.8921 15.5153 17.3909 15.5151 17.8897 15.5151H18.6939V17.9432H14.7736V6.56172ZM5.7894 15.2465C5.7898 13.6273 5.79021 12.0081 5.79041 10.389C5.79041 9.05205 5.79041 7.71511 5.79041 6.37817V3.71969C5.79041 2.84366 5.79041 1.96742 5.79041 1.09139C5.79041 0.737859 5.9762 0.551065 6.32752 0.551065H7.10452C9.25338 0.551065 11.4754 0.550862 13.6607 0.552888C13.7746 0.552888 13.8726 0.57173 13.9523 0.608805C14.1196 0.6864 14.211 0.84321 14.21 1.05006C14.2088 1.27636 14.209 1.50651 14.2094 1.72917C14.2094 1.82317 14.2096 1.91738 14.2096 2.01139V17.9455H12.5222V12.3112C12.5222 12.0637 12.4272 11.9672 12.1835 11.9672C10.7284 11.9672 9.27324 11.967 7.81831 11.9672C7.57356 11.9672 7.47813 12.0633 7.47813 12.3098V17.9469H5.7892L5.7896 15.2467L5.7894 15.2465ZM11.9594 12.5258V17.9455H8.03915V12.5258H11.9594ZM1.30063 7.03479C1.30103 6.73859 1.49716 6.53923 1.78871 6.53863C2.64007 6.5368 3.5054 6.53721 4.34238 6.53761H5.05049C5.06994 6.53782 5.08757 6.54004 5.10438 6.54207C5.11127 6.54288 5.11856 6.54369 5.12647 6.5445L5.22716 6.55423V17.9442H1.30934V15.5149H2.12058C2.60907 15.5151 3.11437 15.5153 3.61116 15.5145C3.70983 15.5145 3.79412 15.4821 3.84842 15.4235C3.89907 15.3688 3.92257 15.2941 3.91609 15.2074C3.90474 15.0556 3.78399 14.9574 3.60813 14.9572C3.10829 14.9563 2.60866 14.9565 2.10883 14.9567H1.30509V12.5221H2.10822C2.61535 12.5221 3.12247 12.5225 3.6296 12.5217C3.77366 12.5215 3.89036 12.4308 3.91325 12.3009C3.93898 12.1548 3.86746 12.028 3.73496 11.9855C3.68836 11.9705 3.63021 11.9684 3.57956 11.9682C3.04022 11.967 2.49176 11.967 1.96133 11.9672H1.30711V9.52754H2.10579C2.61069 9.52754 3.13281 9.52795 3.64622 9.52673C3.77325 9.52653 3.87962 9.44509 3.91062 9.32414C3.94223 9.20096 3.88894 9.06927 3.78662 9.01801C3.73597 8.99248 3.66931 8.97769 3.60367 8.97729C3.08398 8.97425 2.55517 8.97466 2.044 8.97486C1.8888 8.97486 1.7336 8.97486 1.57861 8.97486H1.30124V8.01252C1.30103 7.68654 1.30083 7.36056 1.30124 7.03458L1.30063 7.03479ZM0.557463 18.5117H19.4472V19.4416H0.557463V18.5117Z" fill="#009DFA"/>
<path d="M12.3802 3.63147H10.6371V1.89258H9.3595V3.63188H7.62012V4.90621H9.36112V6.65139H10.6373V4.9052H12.3802V3.63147Z" fill="#009DFA"/>
</g>
<defs>
<clipPath id="clip0_3269_2433">
<rect width="20" height="20" fill="white"/>
</clipPath>
</defs>
</svg>
