<svg width="24" height="24" viewBox="0 0 24 24" fill="none" xmlns="http://www.w3.org/2000/svg">
<rect width="24" height="24" rx="12" fill="#D83333"/>
<g clip-path="url(#clip0_3402_8)">
<path d="M18 5.53096C16.7618 6.43655 15.6361 7.43965 14.6086 8.55615C12.534 10.8103 10.7358 13.2669 9.56128 16.1522C9.31826 16.7484 9.02438 17.2237 8.46694 17.5284C8.24499 17.6497 8.05849 17.841 7.85658 18.0005C7.39521 16.653 6.90815 15.3288 6.23357 14.0888C6.0928 13.8297 5.92633 13.5722 5.72185 13.3666C5.52097 13.1641 5.2574 13.0285 5 12.8489C5.36272 12.5341 5.75782 12.1542 6.32913 12.1976C6.53618 12.2135 6.78947 12.3476 6.921 12.5129C7.238 12.9119 7.52057 13.3459 7.76924 13.7942C8.00968 14.2277 8.19002 14.6971 8.41094 15.1815C10.7409 11.0297 13.73 7.55146 17.7005 5C17.8073 5.1897 17.8967 5.34761 18 5.53096Z" fill="white"/>
</g>
<defs>
<clipPath id="clip0_3402_8">
<rect width="13" height="13" fill="white" transform="translate(5 5)"/>
</clipPath>
</defs>
</svg>
