<svg width="21" height="20" viewBox="0 0 21 20" fill="none" xmlns="http://www.w3.org/2000/svg">
<g clip-path="url(#clip0_3269_2448)">
<path d="M20.2235 16.7851V16.6467C20.1458 16.543 20.042 16.5 19.8829 16.5024C19.6651 16.5064 19.444 16.5056 19.2302 16.5048C18.9681 16.5036 18.6973 16.5028 18.4316 16.5104C18.207 16.5167 18.1288 16.411 18.0797 16.2496C17.9265 15.7463 17.7602 15.2446 17.6178 14.8204C17.5839 14.7194 17.5188 14.6455 17.4434 14.6232C17.3888 14.6069 17.3333 14.6192 17.2835 14.6582C17.2336 14.6972 17.1873 14.7723 17.1562 14.8645C17.0234 15.2557 16.8929 15.6576 16.7669 16.046C16.7234 16.1804 16.6795 16.3152 16.6352 16.4503L16.6173 16.5052H16.5594C16.4026 16.5052 16.2467 16.5052 16.0915 16.5052C15.7001 16.5052 15.2956 16.506 14.8995 16.5036C14.8967 16.5036 14.8939 16.5036 14.8915 16.5036C14.6937 16.5036 14.6139 16.5449 14.5772 16.6658C14.5385 16.793 14.6063 16.8709 14.7451 16.9699C14.8931 17.0757 15.0399 17.1822 15.1867 17.2891C15.4317 17.4672 15.6846 17.6517 15.9379 17.8258C16.1142 17.9475 16.115 18.0731 16.0616 18.2246C15.9598 18.5144 15.8633 18.8121 15.7704 19.1C15.7149 19.2713 15.6595 19.443 15.6024 19.614C15.5422 19.7945 15.5553 19.8839 15.6531 19.9551C15.7516 20.027 15.841 20.0127 15.9938 19.9006C16.1386 19.7945 16.2842 19.6899 16.4298 19.5854C16.6723 19.4112 16.9228 19.2307 17.1646 19.0479C17.3038 18.9425 17.4339 18.9008 17.617 19.0415C17.8739 19.2391 18.1428 19.4319 18.4025 19.618C18.5361 19.7138 18.6697 19.8096 18.8026 19.9066C18.9446 20.0103 19.0332 20.0242 19.1289 19.9582C19.2306 19.8879 19.247 19.7968 19.1887 19.6227C19.1277 19.4406 19.0683 19.2582 19.0088 19.0761C18.9167 18.793 18.8209 18.5005 18.7216 18.2146C18.6618 18.0421 18.6969 17.9312 18.8425 17.8306C19.2278 17.5654 19.6036 17.2895 19.9519 17.0311C20.0229 16.9787 20.0867 16.9166 20.1545 16.8507C20.1777 16.8284 20.2008 16.8057 20.2243 16.7839L20.2235 16.7851ZM18.3985 17.6179C18.142 17.804 18.136 17.823 18.2353 18.1288C18.2932 18.3073 18.3518 18.4857 18.4168 18.6837L18.5896 19.2109L18.1942 18.925C18.0733 18.8376 17.966 18.7601 17.8587 18.6821C17.8252 18.6579 17.7941 18.6348 17.765 18.6134C17.5767 18.475 17.473 18.3987 17.3936 18.3987H17.3924C17.3122 18.3995 17.2053 18.4782 17.011 18.6209L16.9205 18.6873C16.8151 18.7644 16.709 18.8404 16.5893 18.9266L16.2024 19.2049L16.3763 18.6646C16.4453 18.45 16.5088 18.2536 16.5714 18.0568C16.6404 17.8389 16.6245 17.79 16.4397 17.6549L16.407 17.631C16.1769 17.4629 15.9387 17.2887 15.7165 17.0784L15.5717 16.9413H15.7716C15.8637 16.9413 15.9559 16.9409 16.048 16.9401C16.2614 16.9389 16.482 16.9377 16.6991 16.9433C16.8738 16.9481 16.9611 16.8833 17.0118 16.7135C17.072 16.5123 17.1403 16.31 17.2121 16.0957C17.2448 15.9983 17.2787 15.8973 17.3142 15.7904L17.3884 15.5654L17.526 15.9653C17.5651 16.0782 17.5986 16.1764 17.6317 16.2742C17.6437 16.3096 17.6557 16.345 17.668 16.3804C17.7067 16.4937 17.747 16.6109 17.7809 16.729C17.8256 16.8848 17.9142 16.9465 18.0845 16.9429C18.4547 16.9341 18.7499 16.9457 19.0415 16.9799L19.2438 17.0037L18.3985 17.6171V17.6179Z" fill="#009DFA"/>
<path d="M17.7979 7.32997L17.8414 7.28107C17.8514 7.26994 17.8618 7.25801 17.8717 7.24648C17.8949 7.21985 17.9188 7.19242 17.9447 7.16538C18.3991 6.6939 18.427 5.98667 18.011 5.48378C17.7465 5.16375 17.3926 5.01468 16.8976 5.01468H16.8912C15.8344 5.01746 14.7597 5.01706 13.7205 5.01627C13.3112 5.01627 12.9019 5.01627 12.4926 5.01627H12.0989L12.1468 4.90535C12.3969 4.32494 12.5409 3.73459 12.6004 3.04803C12.6458 2.52049 12.6658 1.89953 12.4711 1.29248C12.2401 0.572926 11.8468 0.170612 11.2336 0.0270989C11.019 -0.0229915 10.8439 -0.0023193 10.713 0.0887181C10.579 0.182538 10.4932 0.354674 10.4661 0.586045C10.3983 1.16129 10.3353 1.59819 10.2619 2.00249C10.1434 2.65565 10.0253 3.19433 9.68142 3.68728C9.05152 4.59089 8.15155 5.30329 6.84906 5.92942C6.77606 5.96441 6.66915 5.94373 6.6113 5.90478C6.41384 5.77041 6.18166 5.70879 5.88327 5.71038C5.41134 5.71316 4.93183 5.71236 4.46828 5.71197C4.21656 5.71197 3.96524 5.71157 3.71392 5.71197C2.96274 5.71276 2.54866 6.12581 2.54786 6.87558C2.54746 7.54106 2.54746 8.20655 2.54786 8.87164V9.73113C2.54786 10.0285 2.54786 10.3263 2.54746 10.624C2.54666 11.313 2.54627 12.025 2.54906 12.7254C2.55185 13.3758 2.93961 13.7932 3.56153 13.8151C4.19303 13.8374 4.83729 13.8314 5.46041 13.8254C5.6487 13.8238 5.83699 13.8218 6.02568 13.8207C6.27381 13.8195 6.49522 13.7344 6.70186 13.5611C6.77526 13.4998 6.91848 13.4978 6.99307 13.5372C7.4287 13.7682 7.90462 13.8803 8.44715 13.8803H8.44835C8.92826 13.8803 9.40816 13.8803 9.88807 13.8803C10.2714 13.8803 10.6552 13.8803 11.0386 13.8803H12.1899C12.574 13.8803 12.9586 13.8803 13.3428 13.8807C14.2431 13.8811 15.1742 13.8815 16.0901 13.8795C16.8609 13.8779 17.3699 13.4327 17.4517 12.6892C17.486 12.3752 17.3902 12.0814 17.1493 11.765L17.095 11.6934L17.1728 11.6481C17.5614 11.4223 17.7856 11.1269 17.8582 10.7457C17.932 10.3581 17.8374 9.9951 17.5765 9.66673L17.5251 9.60193L17.5921 9.55303C18.0201 9.24295 18.2515 8.93286 18.2998 8.60529C18.3512 8.25744 18.2001 7.85751 17.8378 7.38165L17.7983 7.32957L17.7979 7.32997ZM6.45333 8.95552C6.45333 9.2024 6.45413 9.44927 6.45413 9.69614H6.45852V10.3485C6.45852 11.2326 6.45891 12.1474 6.45453 13.0466C6.45453 13.1238 6.40466 13.255 6.3165 13.2907C6.16371 13.352 6.03007 13.3826 5.9084 13.3838C5.52783 13.3877 5.14366 13.3889 4.76149 13.3889C4.45552 13.3889 4.15154 13.3881 3.85194 13.3873H3.69916C3.22045 13.3857 2.98748 13.1544 2.98748 12.6793C2.98708 10.7365 2.98708 8.79372 2.98748 6.85093C2.98748 6.39177 3.22843 6.14847 3.684 6.14807C4.41243 6.14728 5.16201 6.14728 5.91239 6.14847C5.99337 6.14847 6.07236 6.15046 6.14855 6.16914C6.36237 6.22281 6.46091 6.34843 6.45891 6.5643C6.45173 7.36098 6.45253 8.17117 6.45373 8.95512L6.45333 8.95552ZM16.9746 9.22983C16.7551 9.2338 16.5325 9.23301 16.3171 9.23221C16.1643 9.23181 16.0116 9.23102 15.8588 9.23221C15.5672 9.2342 15.5636 9.38447 15.562 9.44092C15.5604 9.50453 15.5763 9.55263 15.6114 9.58881C15.6597 9.6389 15.7463 9.66633 15.8628 9.66832C15.9709 9.66991 16.0818 9.66951 16.1887 9.66911C16.3299 9.66832 16.4759 9.66792 16.6203 9.67229C17.0767 9.687 17.421 10.0154 17.4393 10.4539C17.4585 10.915 17.1433 11.2804 16.6901 11.3221C16.4767 11.3416 16.2597 11.3396 16.0499 11.3376C15.9577 11.3368 15.862 11.336 15.769 11.3368C15.7459 11.3368 15.7223 11.3368 15.6992 11.3368C15.6493 11.3368 15.6019 11.336 15.5552 11.3396C15.4215 11.3495 15.333 11.431 15.3294 11.5471C15.3258 11.6632 15.416 11.7574 15.5392 11.7666C15.6665 11.7761 15.7981 11.7753 15.9258 11.7745C15.9996 11.7741 16.0758 11.7737 16.1516 11.7749C16.6494 11.7844 17.0164 12.1295 17.0244 12.5954C17.028 12.8177 16.9454 13.026 16.7919 13.1822C16.6279 13.3488 16.3993 13.4402 16.1484 13.4406C14.82 13.4426 13.5653 13.4434 12.3706 13.4434C10.9672 13.4434 9.64672 13.4422 8.38532 13.4394C7.94012 13.4386 7.5412 13.3412 7.19972 13.1504C7.08323 13.0852 7.03576 13.0017 7.03616 12.8626L7.03855 12.1573C7.04454 10.3799 7.05052 8.54208 7.03057 6.73485C7.02698 6.42476 7.10717 6.28999 7.37325 6.15881C8.23213 5.73582 8.99527 5.16415 9.64233 4.4601C10.2104 3.84153 10.5487 3.07148 10.7071 2.03668C10.7601 1.68843 10.8116 1.33979 10.8642 0.985973C10.8882 0.823775 10.9121 0.660783 10.9368 0.4962L10.948 0.419872L11.025 0.429015C11.4016 0.473142 11.686 0.673504 11.8939 1.04163C12.0897 1.38868 12.1835 1.78901 12.1887 2.30184C12.199 3.34658 12.0299 4.17029 11.6569 4.89382C11.6358 4.93437 11.6122 4.97293 11.5895 5.00991C11.5671 5.04648 11.546 5.08067 11.5276 5.11645C11.4882 5.19317 11.4842 5.2699 11.5165 5.33271C11.548 5.39353 11.6102 5.43408 11.6924 5.44641C11.7514 5.45515 11.8133 5.45476 11.8787 5.45436H11.9186H12.5597C13.9802 5.45476 15.4495 5.45515 16.8944 5.45356H16.8984C17.1481 5.45356 17.407 5.48298 17.612 5.69129C17.853 5.93578 17.9272 6.22798 17.8271 6.53528C17.7162 6.87558 17.4788 7.07594 17.1589 7.09979C16.8597 7.12205 16.5553 7.12245 16.2609 7.12285C16.1544 7.12285 16.0479 7.12285 15.9413 7.12404C15.5975 7.12762 15.5664 7.22502 15.5632 7.33315C15.5612 7.39636 15.5763 7.44367 15.6086 7.47706C15.6633 7.53351 15.775 7.56213 15.9409 7.56213C16.0602 7.56213 16.1795 7.56213 16.2988 7.56174C16.521 7.56094 16.7508 7.56054 16.9769 7.56333C17.4963 7.57008 17.8638 7.9072 17.8705 8.38306C17.8773 8.86329 17.5011 9.21909 16.9754 9.22863L16.9746 9.22983Z" fill="#009DFA"/>
<path d="M5.64166 16.656C5.59698 16.5264 5.49406 16.5025 5.30856 16.5045C5.11668 16.5057 4.92519 16.5053 4.73331 16.5045C4.4397 16.5037 4.13612 16.5033 3.83772 16.5089C3.66539 16.5116 3.57882 16.448 3.52736 16.2795C3.4392 15.9929 3.34386 15.703 3.2517 15.4228C3.19067 15.2379 3.13003 15.0535 3.07059 14.8682C3.01235 14.6861 2.95092 14.6249 2.82805 14.6245H2.82725C2.70478 14.6245 2.64374 14.6861 2.5851 14.8682C2.53125 15.0356 2.4766 15.2029 2.42194 15.3699C2.3246 15.6677 2.22408 15.9758 2.13033 16.2799C2.07927 16.4461 1.98831 16.5124 1.81757 16.5089C1.50761 16.5021 1.19206 16.5033 0.886882 16.5041C0.720132 16.5045 0.55378 16.5049 0.38703 16.5041H0.369079C0.359903 16.5041 0.351127 16.5041 0.34275 16.5041C0.167223 16.5041 0.0643004 16.5168 0.0152327 16.6568C-0.0366274 16.805 0.0483434 16.875 0.203126 16.9859L0.217088 16.9959C0.361499 17.0996 0.505511 17.2042 0.649921 17.3087C0.898052 17.4888 1.15416 17.6749 1.40907 17.8542C1.53035 17.9396 1.56027 18.0319 1.5124 18.1726C1.41625 18.4548 1.32251 18.7435 1.23155 19.0229C1.16493 19.2281 1.09791 19.4336 1.0297 19.6383C0.976241 19.7985 0.993395 19.888 1.09073 19.9572C1.18568 20.0247 1.27703 20.0116 1.41625 19.9098C1.69829 19.7035 1.98632 19.4952 2.26477 19.2937L2.50971 19.1164C2.81089 18.8985 2.8464 18.8985 3.14599 19.1152C3.2525 19.1923 3.35742 19.2686 3.46274 19.3453C3.73281 19.5417 4.01166 19.7449 4.2901 19.9393C4.37348 19.9973 4.46842 20.0116 4.54462 19.9766C4.60645 19.9484 4.64435 19.892 4.65153 19.8184C4.65831 19.7469 4.63358 19.6618 4.60765 19.5811C4.48438 19.1967 4.35593 18.8047 4.23106 18.4258L4.08386 17.9774L4.50672 17.6713C4.81828 17.4459 5.14021 17.2125 5.45696 16.9855C5.62291 16.8667 5.68913 16.7907 5.64246 16.6552L5.64166 16.656ZM4.35832 17.2372C4.24423 17.3195 4.13053 17.4014 4.01724 17.4848C3.96378 17.5242 3.91591 17.5584 3.87283 17.589C3.70249 17.7098 3.63308 17.7619 3.61752 17.8339C3.59877 17.9205 3.65023 18.078 3.7356 18.3276C3.78108 18.4604 3.82217 18.5912 3.87044 18.7427C3.89357 18.8154 3.91791 18.8921 3.94424 18.974L4.01804 19.2042L3.56127 18.8754C3.37776 18.7431 3.20862 18.6214 3.03868 18.5002C2.84959 18.3654 2.80611 18.3658 2.61502 18.5025C2.44588 18.6238 2.27673 18.7454 2.09363 18.8774L1.63806 19.2058L1.81079 18.6699C1.87901 18.458 1.94204 18.2624 2.00467 18.0664C2.07807 17.8363 2.06371 17.7933 1.86584 17.6494C1.69989 17.5286 1.53394 17.4081 1.36759 17.2877L1.09672 17.0913L1.15536 16.943H1.20961C1.30097 16.943 1.39192 16.9422 1.48327 16.9418C1.69351 16.9402 1.91132 16.9386 2.12554 16.9458C2.30665 16.9517 2.39801 16.8845 2.45146 16.7057C2.55279 16.3685 2.65651 16.093 2.77818 15.839L2.86435 15.6593L3.00876 16.1018C3.0698 16.289 3.13123 16.4767 3.19266 16.6635C3.27843 16.9239 3.30317 16.9422 3.57164 16.9426H3.59478C3.87602 16.943 4.16724 16.9438 4.478 16.9808L4.67985 17.005L4.35832 17.2376V17.2372Z" fill="#009DFA"/>
<path d="M12.7723 16.9606C12.9255 16.8509 12.9649 16.771 12.9235 16.6549C12.8844 16.546 12.803 16.503 12.6283 16.5046C12.4555 16.5054 12.2824 16.5046 12.1093 16.5042C11.7973 16.503 11.4746 16.5014 11.1582 16.5102C10.9552 16.5154 10.853 16.4402 10.7932 16.2403C10.7042 15.9437 10.6061 15.6439 10.5112 15.3541C10.4577 15.1915 10.4047 15.0289 10.3524 14.866C10.2953 14.6871 10.2327 14.6231 10.1083 14.625C9.98658 14.6262 9.92555 14.6883 9.8665 14.8715C9.80746 15.0556 9.74683 15.2396 9.68659 15.4233C9.59205 15.7107 9.49471 16.0081 9.40375 16.3015C9.35748 16.4514 9.27091 16.513 9.11573 16.5078C8.93382 16.5018 8.74792 16.503 8.56801 16.5042C8.49301 16.5046 8.41761 16.5054 8.34261 16.5054C8.26762 16.5054 8.19661 16.5054 8.1236 16.5058C7.95406 16.5062 7.77854 16.507 7.6054 16.5042C7.59942 16.5042 7.59343 16.5042 7.58745 16.5042C7.41312 16.5042 7.33334 16.5472 7.29504 16.6589C7.25594 16.773 7.29743 16.8529 7.45222 16.9638C7.60181 17.0707 7.75061 17.1789 7.89941 17.287C8.14794 17.4675 8.40485 17.6543 8.66096 17.8316C8.80656 17.9326 8.84167 18.0435 8.78223 18.2145C8.6817 18.5027 8.58556 18.7981 8.49221 19.0839C8.43556 19.2572 8.37932 19.4305 8.32147 19.6035C8.26403 19.7748 8.25645 19.877 8.37373 19.9589C8.48463 20.036 8.57958 19.997 8.71561 19.8973C8.86122 19.7907 9.00762 19.685 9.15443 19.5796C9.40615 19.3983 9.66664 19.2103 9.91797 19.0207C10.0532 18.9185 10.1657 18.9193 10.3049 19.0239C10.5646 19.2187 10.8331 19.4123 11.0924 19.5995C11.2364 19.7033 11.3804 19.8074 11.5236 19.912C11.6621 20.0129 11.753 20.0257 11.8484 19.9565C11.9445 19.8869 11.9609 19.7971 11.907 19.6365C11.8448 19.4508 11.7829 19.2612 11.7235 19.0779C11.6309 18.7925 11.5352 18.4971 11.4339 18.2101C11.3756 18.0447 11.4131 17.9342 11.5627 17.8296C11.8129 17.6543 12.0646 17.4719 12.3079 17.2953C12.4623 17.1836 12.6163 17.0715 12.7715 16.9606H12.7723ZM11.1155 17.6185C10.8614 17.803 10.8538 17.8269 10.9524 18.1298C11.0342 18.381 11.1155 18.6323 11.1961 18.8835C11.2041 18.9078 11.2005 18.9285 11.1977 18.9483C11.1965 18.9563 11.1949 18.967 11.1933 18.9813L11.1786 19.1177L10.867 18.8931C10.7202 18.7873 10.5794 18.6859 10.4386 18.5838C10.2638 18.4574 10.1769 18.3965 10.1106 18.3961H10.1098C10.0444 18.3961 9.95945 18.4554 9.78951 18.5786C9.64949 18.68 9.50947 18.781 9.35468 18.8923L8.92066 19.2051L9.0902 18.6772C9.15762 18.4669 9.21985 18.2741 9.28128 18.0813C9.35987 17.8356 9.34711 17.7947 9.14405 17.6468L9.12849 17.6352C8.89712 17.4667 8.65737 17.2922 8.43157 17.0799L8.28517 16.9423H8.48623C8.57798 16.9423 8.66973 16.9419 8.76148 16.9411C8.97411 16.9399 9.19432 16.9383 9.41093 16.9443C9.58845 16.9495 9.67662 16.8859 9.72688 16.7189C9.82701 16.3858 9.93193 16.1051 10.0564 15.8356L10.141 15.6523L10.2614 16.0153C10.3029 16.1397 10.3444 16.2645 10.3851 16.3893L10.4182 16.4919C10.4924 16.7237 10.5335 16.8517 10.5945 16.8998C10.6528 16.9459 10.7705 16.9447 10.9835 16.9431C11.031 16.9431 11.0832 16.9423 11.1407 16.9423C11.3393 16.9423 11.5424 16.9423 11.7618 16.9821L11.9453 17.0151L11.1147 17.6181L11.1155 17.6185Z" fill="#009DFA"/>
<path d="M4.79939 10.9653H4.79739C4.57838 10.9653 4.37214 11.0508 4.21696 11.2066C4.05978 11.3641 3.97401 11.5736 3.97561 11.7958C3.9788 12.2446 4.34701 12.6108 4.79659 12.612H4.79859C5.0168 12.612 5.22225 12.5265 5.37743 12.3706C5.535 12.2128 5.62117 12.0029 5.61957 11.7807C5.61638 11.3323 5.24857 10.9665 4.79939 10.9653ZM5.06826 12.059C4.99645 12.1325 4.90071 12.1731 4.79899 12.1735H4.79779C4.58796 12.1735 4.41642 12.0017 4.41562 11.7906C4.41522 11.6889 4.45432 11.5927 4.52652 11.5203C4.59833 11.4476 4.69447 11.4074 4.79619 11.407C4.89832 11.4078 4.99486 11.446 5.06667 11.5175C5.13847 11.5891 5.17836 11.6849 5.17876 11.7875C5.17876 11.8896 5.14007 11.9858 5.06826 12.059Z" fill="#009DFA"/>
</g>
<defs>
<clipPath id="clip0_3269_2448">
<rect width="20.2235" height="20" fill="white"/>
</clipPath>
</defs>
</svg>
